<?xml version="1.0" standalone="no"?>
<!DOCTYPE svg PUBLIC "-//W3C//DTD SVG 20010904//EN"
 "http://www.w3.org/TR/2001/REC-SVG-20010904/DTD/svg10.dtd">
<svg version="1.0" xmlns="http://www.w3.org/2000/svg"
 width="554.000000pt" height="431.000000pt" viewBox="0 0 554.000000 431.000000"
 preserveAspectRatio="xMidYMid meet">

<g transform="translate(0.000000,431.000000) scale(0.100000,-0.100000)"
fill="#000000" stroke="none">
<path d="M2362 2804 c-41 -29 -56 -72 -57 -168 -1 -89 -15 -123 -31 -74 -14
44 -56 97 -91 113 -34 16 -37 16 -61 -2 -55 -41 -92 -144 -77 -213 4 -18 23
-50 42 -71 31 -34 41 -39 78 -39 36 0 48 5 68 30 14 16 31 45 37 65 20 61 40
43 70 -68 20 -73 21 -80 5 -103 -9 -14 -14 -32 -11 -40 24 -63 248 99 263 190
9 59 -23 92 -109 110 -35 8 -35 19 1 65 37 47 61 95 61 122 0 12 -17 39 -39
60 -33 33 -45 39 -83 39 -24 0 -54 -7 -66 -16z m104 -59 c16 -24 16 -28 -1
-65 -9 -21 -30 -50 -45 -65 -25 -24 -29 -25 -44 -10 -28 28 -15 100 26 153 17
20 46 14 64 -13z m-271 -207 c16 -30 17 -40 7 -62 -13 -28 -58 -36 -80 -14
-19 19 -14 72 9 97 26 28 39 24 64 -21z m268 -57 c30 -12 57 -38 57 -56 0 -21
-61 -86 -77 -83 -8 2 -23 28 -34 58 -23 65 -22 55 -3 74 18 19 24 19 57 7z"/>
<path d="M3128 2756 c-59 -21 -121 -62 -146 -95 -12 -17 -26 -31 -31 -31 -4 0
-15 18 -23 39 -20 51 -64 75 -127 69 -55 -6 -118 -34 -132 -59 -13 -25 5 -59
32 -59 11 0 37 9 59 20 49 25 86 26 99 2 14 -27 1 -40 -49 -48 -127 -19 -198
-116 -154 -209 21 -44 62 -65 130 -65 29 0 59 -7 79 -20 30 -19 34 -19 49 -5
13 13 16 39 16 129 0 77 4 118 13 130 12 17 15 17 43 -7 16 -13 39 -29 52 -36
29 -15 28 -22 -13 -92 -38 -65 -44 -96 -19 -106 21 -8 58 31 103 109 42 71 75
89 87 43 3 -14 4 -35 1 -46 -14 -52 33 -91 63 -54 15 18 15 95 0 140 -6 16
-14 77 -19 134 -11 133 -26 148 -113 117z m38 -102 c29 -69 29 -92 0 -105 -35
-16 -107 11 -127 47 -13 25 -12 28 25 60 52 45 83 45 102 -2z m-301 -153 c6
-19 -8 -97 -19 -108 -9 -9 -69 -5 -100 6 -56 22 -40 81 28 105 57 20 84 19 91
-3z"/>
<path d="M1719 2634 c-8 -10 -16 -50 -19 -93 l-5 -76 -23 47 c-42 85 -112 128
-155 96 -27 -22 -77 -128 -77 -166 0 -77 66 -162 125 -162 41 0 61 16 92 70
28 49 42 62 44 38 0 -7 2 -56 4 -108 4 -104 24 -192 51 -221 21 -23 72 -25 81
-3 3 9 -2 29 -11 45 -24 40 -46 117 -46 161 0 41 19 65 58 74 46 11 120 53
136 76 18 25 21 99 6 127 -12 24 -80 51 -125 51 -27 0 -39 7 -57 30 -24 33
-58 39 -79 14z m172 -125 c24 -24 18 -54 -17 -86 -48 -44 -102 -21 -89 38 14
63 66 88 106 48z m-296 -39 c17 -37 17 -41 1 -65 -19 -29 -42 -32 -68 -8 -22
20 -23 61 -2 91 23 34 48 28 69 -18z"/>
<path d="M1255 2598 c-54 -20 -112 -66 -130 -104 -30 -64 -1 -144 62 -171 30
-12 38 -12 68 3 19 9 38 13 43 10 14 -8 45 -152 46 -213 1 -43 -3 -58 -17 -67
-24 -16 -67 10 -91 56 -18 33 -19 40 -6 92 15 65 5 91 -26 65 -45 -37 -59
-159 -25 -215 23 -38 76 -64 130 -64 31 0 49 7 76 31 43 38 45 70 15 205 -25
113 -36 271 -22 312 8 22 7 35 -2 47 -15 21 -82 28 -121 13z m34 -89 c12 -22
11 -30 -10 -74 -26 -54 -54 -69 -76 -39 -23 32 -16 83 17 116 34 33 49 33 69
-3z"/>
<path d="M805 2526 c-25 -25 -26 -29 -12 -49 9 -15 27 -23 51 -25 47 -4 46
-21 -4 -61 -22 -17 -40 -39 -40 -47 0 -25 48 -61 90 -68 48 -7 96 -46 87 -69
-5 -14 -21 -17 -80 -17 -78 0 -97 -9 -97 -46 0 -33 37 -54 95 -54 63 0 121 27
163 74 55 63 35 127 -50 161 -24 9 -46 22 -49 27 -4 6 9 33 28 60 19 28 33 59
31 70 -5 36 -50 60 -121 65 -61 5 -67 4 -92 -21z"/>
<path d="M2910 2006 c-58 -16 -100 -39 -125 -65 -19 -22 -19 -23 0 -57 10 -19
26 -34 36 -34 9 0 43 14 74 30 73 39 121 40 137 4 11 -22 10 -28 -7 -40 -10
-8 -28 -14 -40 -14 -73 0 -185 -64 -217 -124 -32 -60 -26 -140 15 -184 37 -40
75 -53 158 -56 65 -2 83 -6 102 -24 28 -27 53 -28 66 -4 9 16 21 210 25 392 3
141 -90 214 -224 176z m124 -292 c10 -27 7 -83 -8 -119 -15 -34 -17 -35 -70
-35 -100 0 -141 33 -111 90 17 32 39 47 100 66 55 17 82 17 89 -2z"/>
<path d="M2520 2001 c-82 -25 -175 -104 -190 -161 -18 -66 6 -138 60 -184 36
-30 77 -33 121 -10 17 8 37 14 46 12 18 -3 44 -87 67 -216 17 -93 7 -154 -27
-160 -30 -6 -96 45 -119 92 -21 43 -21 46 -5 103 19 68 21 99 7 108 -18 11
-48 -14 -70 -60 -19 -39 -21 -59 -18 -134 3 -99 13 -118 80 -152 46 -24 146
-26 189 -4 36 19 69 70 69 106 0 15 -14 91 -30 170 -38 178 -47 302 -30 394
13 67 12 69 -10 87 -23 19 -92 23 -140 9z m30 -100 c17 -33 11 -75 -17 -132
-44 -86 -96 -72 -110 30 -5 37 -2 44 35 81 43 44 75 51 92 21z"/>
<path d="M2010 1879 c-32 -13 -78 -57 -96 -91 -30 -58 -8 -219 42 -298 26 -42
86 -98 121 -111 61 -23 191 4 219 46 19 28 16 54 -8 69 -13 8 -26 5 -56 -12
-49 -27 -103 -29 -126 -3 -9 10 -14 24 -10 32 3 8 42 43 87 79 117 94 128 122
75 200 -39 58 -99 93 -165 97 -32 1 -69 -2 -83 -8z m141 -115 c29 -26 23 -53
-21 -96 -55 -52 -95 -53 -116 -3 -18 44 -10 79 25 106 30 24 81 21 112 -7z"/>
</g>
</svg>
