<svg xmlns="http://www.w3.org/2000/svg" fill="none" viewBox="0 0 25 24" height="48" width="48"><path fill="#78eb7b" d="M15.927 6.21798C15.9258 6.07987 15.909 5.94234 15.877 5.80798Z"></path><path fill="#78eb7b" d="M22.727 9.03801C22.9001 9.33728 23.0073 9.67004 23.0415 10.014C23.0757 10.3581 23.0361 10.7054 22.9254 11.0329C22.8146 11.3604 22.6353 11.6605 22.3993 11.9131C22.1633 12.1658 21.8762 12.3652 21.557 12.498H0.737001C0.840483 12.2977 0.975545 12.1154 1.137 11.958C0.980847 11.7393 0.862534 11.4959 0.787001 11.238C0.642526 10.7882 0.647222 10.3038 0.80039 9.85693C0.953557 9.41004 1.247 9.0246 1.637 8.75801C1.51349 8.428 1.45698 8.07668 1.47078 7.72458C1.48458 7.37248 1.56841 7.02666 1.71737 6.70732C1.86633 6.38799 2.07744 6.10154 2.33835 5.86471C2.59927 5.62789 2.90477 5.44543 3.237 5.32801C3.58173 5.24951 3.93858 5.24003 4.28699 5.3001C4.63539 5.36017 4.96847 5.48861 5.267 5.67801C5.61116 5.89515 5.89629 6.19402 6.097 6.54801C6.14266 6.09519 6.30482 5.66191 6.56769 5.29038C6.83056 4.91886 7.18518 4.62175 7.597 4.42801C7.5049 4.00154 7.49886 3.56098 7.57924 3.13215C7.65962 2.70331 7.8248 2.29484 8.06509 1.93068C8.30538 1.56651 8.61596 1.25398 8.97861 1.0114C9.34126 0.768824 9.74868 0.601082 10.177 0.518011C10.6118 0.483479 11.0492 0.536325 11.4633 0.673436C11.8774 0.810547 12.2599 1.02915 12.5882 1.31636C12.9165 1.60358 13.184 1.95359 13.375 2.34579C13.5659 2.73799 13.6764 3.16444 13.7 3.60001C14.2459 3.70098 14.7476 3.96704 15.1375 4.36225C15.5273 4.75747 15.7865 5.2628 15.88 5.81001C15.8641 5.4721 15.9235 5.13487 16.0541 4.82279C16.1846 4.5107 16.3829 4.23157 16.6347 4.00564C16.8865 3.7797 17.1854 3.61263 17.5098 3.51653C17.8341 3.42043 18.1758 3.3977 18.51 3.45001C18.6484 3.124 18.852 2.8297 19.1082 2.58518C19.3644 2.34065 19.6679 2.15105 20 2.02801C20.3299 1.90448 20.6811 1.84793 21.0331 1.86167C21.385 1.8754 21.7308 1.95915 22.05 2.10801C22.3534 2.29093 22.6168 2.53302 22.8246 2.81988C23.0325 3.10674 23.1805 3.43249 23.2598 3.77773C23.3391 4.12297 23.3481 4.48064 23.2863 4.82944C23.2245 5.17825 23.0931 5.51104 22.9 5.80801C23.1056 6.02893 23.2646 6.28894 23.3677 6.57258C23.4707 6.85622 23.5156 7.15769 23.4998 7.45905C23.4839 7.76041 23.4076 8.05549 23.2753 8.32675C23.1431 8.59801 22.9576 8.83989 22.73 9.03801H22.727Z"></path><path fill="#ffdda1" d="M0.5 14.5C0.5 19.47 5.5 23.5 12 23.5C18.5 23.5 23.5 19.47 23.5 14.5H0.5Z"></path><path fill="#ffbc44" d="M12 19.5C7.38 19.5 3.529 17.459 1.681 14.5H0.5C0.5 19.47 5.5 23.5 12 23.5C18.5 23.5 23.5 19.47 23.5 14.5H22.319C20.471 17.462 16.62 19.5 12 19.5Z"></path><path stroke="#191919" stroke-linecap="round" stroke-linejoin="round" d="M0.5 14.5C0.5 19.47 5.5 23.5 12 23.5C18.5 23.5 23.5 19.47 23.5 14.5H0.5Z"></path><path stroke="#191919" stroke-linecap="round" stroke-linejoin="round" d="M10.023 10.962C9.87812 10.6746 9.67192 10.4224 9.41896 10.2234C9.166 10.0243 8.87245 9.88323 8.55901 9.81C8.5835 9.50942 8.54736 9.20697 8.45275 8.92062C8.35813 8.63426 8.20696 8.36983 8.00821 8.143C7.80946 7.91618 7.56717 7.73158 7.29573 7.60017C7.02428 7.46876 6.72921 7.39321 6.42801 7.378C6.35775 7.03172 6.21879 6.70304 6.01936 6.41138C5.81992 6.11971 5.56405 5.87098 5.26685 5.67987C4.96966 5.48877 4.63718 5.35917 4.28906 5.29873C3.94093 5.23829 3.58422 5.24825 3.24001 5.328C2.90681 5.4447 2.60034 5.62689 2.33864 5.86386C2.07694 6.10082 1.86531 6.38775 1.71621 6.70776C1.56711 7.02777 1.48355 7.37438 1.47047 7.72718C1.45738 8.07998 1.51502 8.43183 1.64001 8.762C1.24921 9.0279 0.955073 9.41325 0.801657 9.86033C0.648241 10.3074 0.643803 10.7922 0.789008 11.242C0.863826 11.4979 0.980761 11.7395 1.13501 11.957C0.974416 12.1145 0.841251 12.2977 0.741008 12.499"></path><path stroke="#191919" stroke-linecap="round" stroke-linejoin="round" d="M15.924 6.22198C15.9106 5.59605 15.6823 4.99379 15.2773 4.51634C14.8723 4.03889 14.3154 3.71532 13.7 3.59998C13.6763 3.1643 13.5656 2.73778 13.3744 2.34559C13.1832 1.9534 12.9153 1.60348 12.5867 1.31649C12.258 1.0295 11.8752 0.811246 11.4608 0.674617C11.0465 0.537989 10.6089 0.48575 10.174 0.520984C9.74575 0.603618 9.33837 0.771115 8.97584 1.01361C8.61331 1.2561 8.30298 1.56869 8.06311 1.93296C7.82324 2.29724 7.6587 2.70583 7.57916 3.13467C7.49963 3.56351 7.50672 4.00392 7.60001 4.42998C7.18287 4.62463 6.82451 4.92593 6.56113 5.30344C6.29775 5.68095 6.13868 6.1213 6.10001 6.57998"></path><path stroke="#191919" stroke-linecap="round" stroke-linejoin="round" d="M21.561 12.5C21.8794 12.3655 22.1656 12.1649 22.4006 11.9114C22.6355 11.658 22.8139 11.3574 22.9239 11.0298C23.0339 10.7021 23.0729 10.3548 23.0385 10.0109C23.004 9.66695 22.8968 9.3343 22.724 9.03497C22.9527 8.83715 23.1392 8.59527 23.2723 8.32379C23.4055 8.05231 23.4826 7.75678 23.499 7.45485C23.5154 7.15292 23.4708 6.85077 23.3679 6.56645C23.265 6.28212 23.1059 6.02144 22.9 5.79997C23.0917 5.50318 23.2219 5.17097 23.2831 4.82299C23.3442 4.475 23.335 4.11829 23.2559 3.77393C23.1769 3.42957 23.0296 3.10455 22.8228 2.81807C22.616 2.53159 22.3539 2.28945 22.052 2.10597C21.7321 1.956 21.3855 1.87165 21.0325 1.8579C20.6795 1.84415 20.3273 1.90128 19.9968 2.02591C19.6662 2.15054 19.364 2.34015 19.1079 2.58354C18.8519 2.82693 18.6472 3.11916 18.506 3.44297C18.1716 3.39186 17.83 3.41559 17.5059 3.51247C17.1818 3.60935 16.8832 3.77696 16.6317 4.0032C16.3802 4.22944 16.1821 4.50868 16.0516 4.82078C15.921 5.13288 15.8614 5.47005 15.877 5.80797"></path><path fill="#ffbfc5" d="M19.005 12.5C19.3011 12.2796 19.5465 11.9984 19.7249 11.6753C19.9032 11.3521 20.0103 10.9945 20.039 10.6266C20.0677 10.2586 20.0172 9.88876 19.8911 9.5419C19.765 9.19504 19.566 8.87919 19.3077 8.61559C19.0494 8.352 18.7376 8.14675 18.3933 8.01366C18.0491 7.88056 17.6803 7.8227 17.3119 7.84395C16.9434 7.86521 16.5837 7.9651 16.2571 8.1369C15.9304 8.3087 15.6443 8.54844 15.418 8.84C15.3197 8.96522 15.233 9.0991 15.159 9.24L15.768 12.496"></path><path fill="#ff808c" d="M17.607 11.041C17.1707 11.0407 16.7394 10.9478 16.3417 10.7683C15.944 10.5889 15.5889 10.327 15.3 10L15.768 12.5H19.005C19.4033 12.2059 19.7088 11.8036 19.8852 11.3409C20.0616 10.8782 20.1014 10.3747 20 9.89001C19.7121 10.2481 19.3479 10.5373 18.9338 10.7365C18.5198 10.9356 18.0664 11.0397 17.607 11.041V11.041Z"></path><path stroke="#191919" stroke-linecap="round" stroke-linejoin="round" d="M19.005 12.5C19.3011 12.2796 19.5465 11.9984 19.7249 11.6753C19.9032 11.3521 20.0103 10.9945 20.039 10.6266C20.0677 10.2586 20.0172 9.88876 19.8911 9.5419C19.765 9.19504 19.566 8.87919 19.3077 8.61559C19.0494 8.352 18.7376 8.14675 18.3933 8.01366C18.0491 7.88056 17.6803 7.8227 17.3119 7.84395C16.9434 7.86521 16.5837 7.9651 16.2571 8.1369C15.9304 8.3087 15.6443 8.54844 15.418 8.84C15.3197 8.96522 15.233 9.0991 15.159 9.24L15.768 12.496"></path><path stroke="#191919" stroke-linecap="round" stroke-linejoin="round" d="M4.5 9.34003C5.12516 10.2777 5.47188 11.3734 5.5 12.5"></path><path stroke="#191919" stroke-linecap="round" stroke-linejoin="round" d="M10.5 3.84003L10.571 4.01903C11.1611 5.49364 11.476 7.06391 11.5 8.65203"></path><path stroke="#191919" stroke-linecap="round" stroke-linejoin="round" d="M20.5 5.34003C19.6971 6.148 18.9879 7.044 18.386 8.01103"></path><path fill="#ffbfc5" d="M10.232 12.5C10.0415 12.0441 9.96649 11.5481 10.0138 11.0562C10.061 10.5643 10.2291 10.0917 10.503 9.68043C10.7769 9.26912 11.1481 8.93184 11.5837 8.69855C12.0193 8.46527 12.5058 8.3432 13 8.3432C13.4942 8.3432 13.9807 8.46527 14.4163 8.69855C14.8519 8.93184 15.2231 9.26912 15.497 9.68043C15.7709 10.0917 15.939 10.5643 15.9862 11.0562C16.0335 11.5481 15.9585 12.0441 15.768 12.5"></path><path fill="#ff808c" d="M13 11.273C12.4855 11.2724 11.9785 11.1497 11.5207 10.9148C11.0629 10.6799 10.6675 10.3396 10.367 9.922C10.1545 10.3142 10.0321 10.7488 10.0087 11.1943C9.98538 11.6397 10.0617 12.0847 10.232 12.497H15.768C15.939 12.0849 16.0156 11.6398 15.9922 11.1942C15.9689 10.7486 15.8461 10.314 15.633 9.922C15.3326 10.3397 14.9371 10.68 14.4794 10.9149C14.0216 11.1498 13.5145 11.2725 13 11.273Z"></path><path stroke="#191919" stroke-linecap="round" stroke-linejoin="round" d="M10.232 12.5C10.0415 12.0441 9.96649 11.5481 10.0138 11.0562C10.061 10.5643 10.2291 10.0917 10.503 9.68043C10.7769 9.26912 11.1481 8.93184 11.5837 8.69855C12.0193 8.46527 12.5058 8.3432 13 8.3432C13.4942 8.3432 13.9807 8.46527 14.4163 8.69855C14.8519 8.93184 15.2231 9.26912 15.497 9.68043C15.7709 10.0917 15.939 10.5643 15.9862 11.0562C16.0335 11.5481 15.9585 12.0441 15.768 12.5"></path></svg>